HIERARCHY
ROOT Hips
{
	OFFSET 0.000000 89.005402 0.000000
	CHANNELS 6 Xposition Yposition Zposition Xrotation Yrotation Zrotation
	JOINT Spine
	{
		OFFSET 0.116900 10.681000 0.373400
		CHANNELS 3 Xrotation Yrotation Zrotation
		JOINT Spine1
		{
			OFFSET 0.000000 13.840401 0.053500
			CHANNELS 3 Xrotation Yrotation Zrotation
			JOINT Spine2
			{
				OFFSET 0.000000 14.712700 -0.366200
				CHANNELS 3 Xrotation Yrotation Zrotation
				JOINT Neck
				{
					OFFSET 0.000000 35.415497 -3.314200
					CHANNELS 3 Xrotation Yrotation Zrotation
					JOINT Head
					{
						OFFSET 0.000000 16.899200 1.218300
						CHANNELS 3 Xrotation Yrotation Zrotation
						JOINT HeadTop_End
						{
							OFFSET 0.000000 22.206207 2.192500
							CHANNELS 3 Xrotation Yrotation Zrotation
							End Site
							{
								OFFSET 0.000000 22.314178 0.000000
							}
						}
					}
				}
				JOINT LeftShoulder
				{
					OFFSET 12.896400 26.716293 -4.548400
					CHANNELS 3 Xrotation Yrotation Zrotation
					JOINT LeftArm
					{
						OFFSET 19.027000 -4.857010 -1.718400
						CHANNELS 3 Xrotation Yrotation Zrotation
						JOINT LeftForeArm
						{
							OFFSET 24.179897 0.000000 0.000000
							CHANNELS 3 Xrotation Yrotation Zrotation
							JOINT LeftHand
							{
								OFFSET 27.156403 0.000000 0.000000
								CHANNELS 3 Xrotation Yrotation Zrotation
								JOINT LeftHandIndex1
								{
									OFFSET 16.441200 0.000000 0.000000
									CHANNELS 3 Xrotation Yrotation Zrotation
									JOINT LeftHandIndex2
									{
										OFFSET 4.821899 0.000000 0.000000
										CHANNELS 3 Xrotation Yrotation Zrotation
										JOINT LeftHandIndex3
										{
											OFFSET 6.386497 0.000000 0.000000
											CHANNELS 3 Xrotation Yrotation Zrotation
											JOINT LeftHandIndex4
											{
												OFFSET 5.188988 0.000000 0.000000
												CHANNELS 3 Xrotation Yrotation Zrotation
												End Site
												{
													OFFSET -0.178703 5.185913 0.000177
												}
											}
										}
									}
								}
								JOINT LeftHandThumb1
								{
									OFFSET 6.534897 -5.032593 5.900300
									CHANNELS 3 Xrotation Yrotation Zrotation
									JOINT LeftHandThumb2
									{
										OFFSET 3.818176 -2.204422 2.204423
										CHANNELS 3 Xrotation Yrotation Zrotation
										JOINT LeftHandThumb3
										{
											OFFSET 3.252098 -1.877594 1.877601
											CHANNELS 3 Xrotation Yrotation Zrotation
											JOINT LeftHandThumb4
											{
												OFFSET 5.251778 -3.032120 3.032117
												CHANNELS 3 Xrotation Yrotation Zrotation
												End Site
												{
													OFFSET 0.000023 6.780014 0.000000
												}
											}
										}
									}
								}
							}
						}
					}
				}
				JOINT RightShoulder
				{
					OFFSET -12.896300 26.716293 -4.548400
					CHANNELS 3 Xrotation Yrotation Zrotation
					JOINT RightArm
					{
						OFFSET -19.027000 -4.857010 -1.718400
						CHANNELS 3 Xrotation Yrotation Zrotation
						JOINT RightForeArm
						{
							OFFSET -24.179897 0.000000 0.000000
							CHANNELS 3 Xrotation Yrotation Zrotation
							JOINT RightHand
							{
								OFFSET -27.156403 0.000000 0.000000
								CHANNELS 3 Xrotation Yrotation Zrotation
								JOINT RightHandThumb1
								{
									OFFSET -6.591202 -4.852203 5.988100
									CHANNELS 3 Xrotation Yrotation Zrotation
									JOINT RightHandThumb2
									{
										OFFSET -3.818176 -2.204422 2.204423
										CHANNELS 3 Xrotation Yrotation Zrotation
										JOINT RightHandThumb3
										{
											OFFSET -3.252098 -1.877594 1.877601
											CHANNELS 3 Xrotation Yrotation Zrotation
											JOINT RightHandThumb4
											{
												OFFSET -5.251778 -3.032120 3.032117
												CHANNELS 3 Xrotation Yrotation Zrotation
												End Site
												{
													OFFSET -0.000023 6.780014 0.000000
												}
											}
										}
									}
								}
								JOINT RightHandIndex1
								{
									OFFSET -16.029404 0.000000 0.000000
									CHANNELS 3 Xrotation Yrotation Zrotation
									JOINT RightHandIndex2
									{
										OFFSET -5.213303 0.000000 0.000000
										CHANNELS 3 Xrotation Yrotation Zrotation
										JOINT RightHandIndex3
										{
											OFFSET -6.386528 0.000000 0.000000
											CHANNELS 3 Xrotation Yrotation Zrotation
											JOINT RightHandIndex4
											{
												OFFSET -5.189026 0.000000 0.000000
												CHANNELS 3 Xrotation Yrotation Zrotation
												End Site
												{
													OFFSET 0.236702 5.183624 0.001972
												}
											}
										}
									}
								}
							}
						}
					}
				}
			}
		}
	}
	JOINT LeftUpLeg
	{
		OFFSET 14.073000 -7.904099 -1.463000
		CHANNELS 3 Xrotation Yrotation Zrotation
		JOINT LeftLeg
		{
			OFFSET -0.109806 -34.073280 4.093200
			CHANNELS 3 Xrotation Yrotation Zrotation
			JOINT LeftFoot
			{
				OFFSET 0.109806 -29.899420 -6.319000
				CHANNELS 3 Xrotation Yrotation Zrotation
				JOINT LeftToeBase
				{
					OFFSET 1.551100 -14.988700 20.535801
					CHANNELS 3 Xrotation Yrotation Zrotation
					JOINT LeftToe_End
					{
						OFFSET 0.221200 0.570800 13.248301
						CHANNELS 3 Xrotation Yrotation Zrotation
						End Site
						{
							OFFSET 0.000000 13.262435 0.000000
						}
					}
				}
			}
		}
	}
	JOINT RightUpLeg
	{
		OFFSET -13.839300 -7.904099 -1.463000
		CHANNELS 3 Xrotation Yrotation Zrotation
		JOINT RightLeg
		{
			OFFSET 0.109694 -34.073219 4.093300
			CHANNELS 3 Xrotation Yrotation Zrotation
			JOINT RightFoot
			{
				OFFSET -0.109694 -29.899384 -6.319200
				CHANNELS 3 Xrotation Yrotation Zrotation
				JOINT RightToeBase
				{
					OFFSET -1.551100 -14.988700 20.535801
					CHANNELS 3 Xrotation Yrotation Zrotation
					JOINT RightToe_End
					{
						OFFSET -0.221200 0.570900 13.248299
						CHANNELS 3 Xrotation Yrotation Zrotation
						End Site
						{
							OFFSET 0.000000 13.262440 0.000000
						}
					}
				}
			}
		}
	}
}
MOTION
Frames: 5
Frame Time: 0.033333
1.827430 80.668083 96.152603 -3.157279 0.856454 -0.540675 0.417434 -1.376887 1.445024 0.892444 -3.573479 0.274005 0.902004 -3.568926 0.280580 -1.340456 0.980063 -0.008865 -4.175904 5.302174 -1.759621 0.000000 -0.000000 -0.000000 1.074439 -7.255819 -11.534011 0.567486 0.728240 -66.911518 -0.000013 -42.705338 0.000005 20.121881 -7.377988 -16.693995 0.340608 2.142793 -18.061904 0.340632 2.142793 -18.061885 0.085649 1.084844 -9.027762 0.000000 0.000001 -0.000001 -10.161775 13.546818 12.374582 4.437036 15.074468 -2.342949 -0.353481 5.149729 1.077661 0.000002 0.000000 0.000001 1.617948 7.211425 10.969515 -13.798929 -12.631514 60.950682 0.000002 1.657638 -0.000001 -4.353767 0.585313 6.540844 8.602484 -20.511850 13.538865 8.375589 -14.862258 -4.030385 0.673866 -2.868457 -4.340401 -0.000000 -0.000002 -0.000000 2.355639 -5.219621 48.556126 6.879580 -6.947900 89.432516 1.998996 -4.882868 44.507176 0.000000 -0.000001 0.000000 14.190716 5.115774 -3.523705 43.186487 6.570989 0.567020 -16.812695 1.058226 -4.099424 -39.270070 0.002190 -0.012051 0.000000 -0.000001 -0.000000 -30.981530 -4.287182 3.562363 32.298421 -10.366217 -0.780881 0.359068 -8.885008 -4.304616 -0.000018 -0.000000 0.000002 0.000000 -0.000000 0.000000 
1.422603 80.285179 99.087624 -3.647857 0.711382 -1.467874 0.403487 -1.457502 2.032705 0.947329 -3.677451 0.532658 0.957018 -3.671543 0.544255 -1.556729 0.998205 -0.122853 -4.580121 5.227376 -1.682758 0.000001 -0.000000 -0.000000 1.096139 -7.338244 -11.649090 0.322952 3.533630 -68.134415 0.000007 -37.545167 -0.000007 23.983760 -7.943167 -15.990791 0.326490 2.099005 -17.680162 0.326480 2.099012 -17.680175 0.082069 1.062120 -8.837099 -0.000003 -0.000001 -0.000002 -10.161779 13.546814 12.374585 4.437031 15.074465 -2.342946 -0.353485 5.149733 1.077662 0.000000 -0.000001 -0.000002 1.580838 7.156793 10.591739 -13.339933 -12.397870 61.467447 -0.000003 1.783937 -0.000004 -4.894919 -0.013672 6.921007 8.602487 -20.511850 13.538862 8.375588 -14.862253 -4.030385 0.673866 -2.868456 -4.340400 0.000000 0.000001 -0.000000 2.355637 -5.219622 48.556122 6.879580 -6.947899 89.432530 1.998997 -4.882870 44.507183 -0.000000 -0.000000 0.000001 7.581322 4.917597 -1.573961 52.879038 5.013944 0.491448 -4.057895 0.734882 -3.837569 -56.565349 0.079688 -0.144616 -0.000000 0.000000 0.000000 -29.422887 -3.693717 5.378479 35.937536 -10.482485 -0.852358 -4.203498 -10.159281 -3.642177 -0.000030 -0.000002 0.000007 -0.000000 -0.000000 -0.000000 
1.105876 79.943832 101.804245 -3.887201 0.910211 -2.191804 0.398680 -1.475572 2.341438 1.033342 -3.658171 0.562139 1.041054 -3.652373 0.578483 -1.726339 0.917704 -0.157490 -5.350437 4.696409 -1.284465 -0.000000 0.000000 -0.000000 1.117408 -7.499852 -11.739577 0.279222 5.585471 -68.547396 -0.000014 -33.255009 -0.000021 27.493526 -8.532236 -15.270906 0.313503 2.057896 -17.322545 0.313514 2.057914 -17.322519 0.078798 1.040822 -8.658436 -0.000001 0.000001 0.000001 -10.161775 13.546815 12.374587 4.437033 15.074468 -2.342949 -0.353478 5.149730 1.077663 0.000004 0.000001 0.000000 1.547654 7.114691 10.241860 -12.780308 -12.024660 62.190279 -0.000004 2.123008 -0.000002 -5.283816 -0.561360 7.684118 8.602486 -20.511852 13.538862 8.375589 -14.862256 -4.030384 0.673866 -2.868455 -4.340400 -0.000000 -0.000000 -0.000000 2.355636 -5.219622 48.556126 6.879580 -6.947898 89.432516 1.998995 -4.882870 44.507183 0.000001 -0.000002 -0.000000 1.414408 3.627868 -0.262276 57.833794 3.675231 0.348733 9.465840 0.328465 -2.850868 -70.476282 -4.411940 -0.395166 -0.000000 0.000000 0.000000 -27.823467 -3.558177 6.705583 38.748476 -10.547899 -0.885625 -8.271569 -11.111512 -3.170111 -0.000020 0.000000 0.000001 0.000000 -0.000002 -0.000000 
0.905328 79.958023 104.544037 -3.917227 1.052833 -2.528594 0.403812 -1.373988 2.295826 1.116426 -3.411289 0.383695 1.120778 -3.407531 0.401917 -1.767344 0.757377 -0.124213 -6.216969 3.831479 -0.778398 -0.000000 -0.000000 0.000000 1.129366 -7.655278 -11.772155 0.567355 6.784292 -68.256246 0.000000 -30.240895 -0.000007 30.297466 -9.266459 -14.392424 0.299954 2.013937 -16.940848 0.299953 2.013931 -16.940860 0.075359 1.018071 -8.467794 -0.000001 0.000001 -0.000000 -10.161770 13.546815 12.374582 4.437028 15.074467 -2.342946 -0.353481 5.149732 1.077664 -0.000004 0.000000 0.000000 1.521362 7.048383 9.986922 -12.316451 -11.652523 62.973887 -0.000002 2.249269 0.000002 -5.261138 -0.772044 8.561553 8.602486 -20.511850 13.538863 8.375589 -14.862259 -4.030384 0.673867 -2.868458 -4.340400 -0.000000 -0.000001 0.000000 2.355640 -5.219622 48.556126 6.879579 -6.947899 89.432516 1.998997 -4.882869 44.507179 -0.000000 -0.000001 -0.000001 -3.927960 2.254810 1.135318 60.746555 3.107612 0.225767 16.883683 0.120161 -4.034885 -76.804480 -11.684479 -1.319084 0.000000 -0.000000 -0.000000 -25.573915 -3.950246 7.266008 40.113158 -10.527844 -0.865387 -11.765204 -11.171075 -2.899268 -0.000064 0.000003 -0.000005 0.000000 -0.000000 -0.000000 
0.716748 80.366165 107.391739 -3.983495 0.602978 -2.382362 0.432642 -1.169305 2.056577 1.197875 -2.899677 0.101152 1.199048 -2.898987 0.117378 -1.630489 0.583818 -0.097862 -6.887470 2.922840 -0.424201 -0.000000 -0.000000 -0.000000 1.121018 -7.658779 -11.713726 1.267522 7.479269 -67.798179 0.000002 -28.595985 -0.000020 32.135197 -10.020870 -13.413812 0.285935 1.967343 -16.537204 0.285941 1.967345 -16.537203 0.071826 0.994001 -8.266149 0.000000 0.000002 0.000001 -10.161774 13.546815 12.374584 4.437032 15.074465 -2.342946 -0.353481 5.149731 1.077665 -0.000000 -0.000000 0.000001 1.500015 6.983269 9.797342 -12.019964 -11.443105 63.682327 -0.000002 2.063268 -0.000014 -4.820449 -0.613091 9.264787 8.602486 -20.511850 13.538867 8.375589 -14.862256 -4.030386 0.673867 -2.868455 -4.340402 -0.000000 0.000001 -0.000000 2.355641 -5.219622 48.556126 6.879578 -6.947897 89.432530 1.998997 -4.882870 44.507176 0.000000 -0.000000 0.000000 -9.059501 2.304471 2.825680 64.312959 2.142898 0.217295 16.928899 -0.003347 -5.550227 -72.985011 -5.380024 -0.345857 0.000000 -0.000001 0.000000 -22.498706 -4.444466 7.161861 40.062980 -10.442307 -0.782576 -14.641719 -10.157162 -2.767072 -0.000031 0.000000 0.000000 0.000000 -0.000002 -0.000000 
